<?xml version="1.0" standalone="no"?><!-- Generator: Gravit.io --><svg xmlns="http://www.w3.org/2000/svg" xmlns:xlink="http://www.w3.org/1999/xlink" style="isolation:isolate" viewBox="0 0 800 812" width="800" height="812"><defs><clipPath id="_clipPath_0eeUOxYO6sDiKZYkoEbKp6AVCkh7ifU3"><rect width="800" height="812"/></clipPath></defs><g clip-path="url(#_clipPath_0eeUOxYO6sDiKZYkoEbKp6AVCkh7ifU3)"><rect x="217.853" y="620.297" width="388.567" height="192" transform="matrix(1,0,0,1,0,0)" fill="rgb(156,187,213)"/><g><g><linearGradient id="_lgradient_23" x1="-0.09908483865216187" y1="0.21088694518214807" x2="0.8986234882717927" y2="0.9219791101719292" gradientTransform="matrix(107.152,0,0,119.477,152.96,171.591)" gradientUnits="userSpaceOnUse"><stop offset="0%" stop-opacity="1" style="stop-color:rgb(252,215,100)"/><stop offset="100%" stop-opacity="1" style="stop-color:rgb(236,191,42)"/></linearGradient><path d=" M 206.521 171.957 C 205.791 171.951 205.315 186.569 204.286 187.625 C 202.708 189.244 201.683 190.443 201.683 192.717 C 201.683 195.083 203.267 196.637 204.711 197.519 Q 204.625 198.584 204.405 199.348 Q 204.397 199.348 204.389 199.348 C 195.712 211.037 186.718 219.131 176.74 223.631 C 143.445 238.646 150.033 277.673 166.685 288.984 Q 159.773 292.755 206.55 289.701 L 206.55 289.494 Q 253.296 292.544 246.386 288.775 C 263.039 277.464 269.627 238.437 236.332 223.421 C 226.354 218.922 217.361 210.829 208.685 199.143 Q 208.426 198.332 208.331 197.153 C 209.775 196.271 211.359 194.717 211.359 192.35 C 211.359 190.077 210.334 188.877 208.756 187.258 C 207.727 186.203 207.251 171.584 206.521 171.591 Q 206.521 171.728 206.521 171.957 Z " fill-rule="evenodd" fill="url(#_lgradient_23)"/><linearGradient id="_lgradient_24" x1="0" y1="0.5" x2="1" y2="0.5" gradientTransform="matrix(82.552,0,0,4.454,165.289,287.777)" gradientUnits="userSpaceOnUse"><stop offset="0%" stop-opacity="1" style="stop-color:rgb(198,198,198)"/><stop offset="100%" stop-opacity="1" style="stop-color:rgb(146,146,146)"/></linearGradient><rect x="165.289" y="287.777" width="82.552" height="4.454" transform="matrix(1,0,0,1,0,0)" fill="url(#_lgradient_24)"/><linearGradient id="_lgradient_25" x1="0.06088544202868105" y1="0.330545263679837" x2="0.6783320758846642" y2="0.8510905485831319" gradientTransform="matrix(79.539,0,0,77.24,158.462,199.672)" gradientUnits="userSpaceOnUse"><stop offset="0%" stop-opacity="0.7" style="stop-color:rgb(255,255,255)"/><stop offset="100%" stop-opacity="1" style="stop-color:rgb(239,196,55)"/></linearGradient><path d=" M 166.124 276.577 C 155.1 263.721 153.256 235.406 179.091 223.756 C 187.747 219.852 195.55 212.83 203.077 202.69 Q 204.819 199.907 204.927 199.672 L 204.927 199.677 L 204.927 199.672 Q 205.732 200.938 206.802 202.508 C 214.329 212.648 222.132 219.67 230.788 223.574 C 233.495 224.794 235.897 226.198 238.001 227.755 C 225.556 260.893 198.887 279.692 166.124 276.577 Z " fill-rule="evenodd" fill="url(#_lgradient_25)"/></g><linearGradient id="_lgradient_26" x1="0" y1="0.5" x2="1" y2="0.5" gradientTransform="matrix(64.006,0,0,168.76,174.533,316.228)" gradientUnits="userSpaceOnUse"><stop offset="0%" stop-opacity="0.9215686274509803" style="stop-color:rgb(232,244,244)"/><stop offset="20%" stop-opacity="1" style="stop-color:rgb(204,211,212)"/><stop offset="81.73913043478261%" stop-opacity="1" style="stop-color:rgb(204,211,212)"/><stop offset="98.26086956521739%" stop-opacity="1" style="stop-color:rgb(173,176,177)"/></linearGradient><path d=" M 206.735 411.211 L 206.735 411.211 C 213.238 411.211 218.517 416.743 218.517 423.557 L 218.517 453.369 L 194.954 453.369 L 194.954 423.557 C 194.954 416.743 200.233 411.211 206.735 411.211 L 206.735 411.211 Z  M 174.533 316.228 L 238.539 316.228 L 238.539 484.988 L 174.533 484.988 L 174.533 316.228 L 174.533 316.228 Z  M 206.735 343.605 L 206.735 343.605 C 213.238 343.605 218.517 349.137 218.517 355.95 L 218.517 385.763 L 194.954 385.763 L 194.954 355.95 C 194.954 349.137 200.233 343.605 206.735 343.605 Z " fill-rule="evenodd" fill="url(#_lgradient_26)"/><linearGradient id="_lgradient_27" x1="0" y1="0.5" x2="1" y2="0.5" gradientTransform="matrix(83.255,0,0,299.699,164.908,512.301)" gradientUnits="userSpaceOnUse"><stop offset="0%" stop-opacity="0.9725490196078431" style="stop-color:rgb(236,236,236)"/><stop offset="16.956521739130434%" stop-opacity="1" style="stop-color:rgb(204,211,212)"/><stop offset="80.8695652173913%" stop-opacity="1" style="stop-color:rgb(204,211,212)"/><stop offset="99.56521739130434%" stop-opacity="1" style="stop-color:rgb(173,176,177)"/></linearGradient><rect x="164.908" y="512.301" width="83.255" height="299.699" transform="matrix(1,0,0,1,0,0)" fill="url(#_lgradient_27)"/><linearGradient id="_lgradient_28" x1="-2.7755575615628914e-17" y1="0.5" x2="1.0397761337325528" y2="0.5" gradientTransform="matrix(115.071,0,0,30.873,149,483.231)" gradientUnits="userSpaceOnUse"><stop offset="0%" stop-opacity="1" style="stop-color:rgb(232,244,244)"/><stop offset="15.217391304347828%" stop-opacity="1" style="stop-color:rgb(197,198,198)"/><stop offset="82.17391304347827%" stop-opacity="1" style="stop-color:rgb(204,211,212)"/><stop offset="100%" stop-opacity="1" style="stop-color:rgb(153,153,153)"/></linearGradient><rect x="149" y="483.231" width="115.071" height="30.873" transform="matrix(1,0,0,1,0,0)" fill="url(#_lgradient_28)"/><linearGradient id="_lgradient_29" x1="-0.018982407050947003" y1="0.5365137261403099" x2="1.0185800936185423" y2="0.5365137261403099" gradientTransform="matrix(93.079,0,0,26.207,159.996,291.658)" gradientUnits="userSpaceOnUse"><stop offset="0%" stop-opacity="1" style="stop-color:rgb(231,242,242)"/><stop offset="17.391304347826086%" stop-opacity="1" style="stop-color:rgb(198,199,199)"/><stop offset="84.34782608695653%" stop-opacity="1" style="stop-color:rgb(204,211,212)"/><stop offset="100%" stop-opacity="1" style="stop-color:rgb(164,166,166)"/></linearGradient><rect x="159.996" y="291.658" width="93.079" height="26.207" transform="matrix(1,0,0,1,0,0)" fill="url(#_lgradient_29)"/></g><g><linearGradient id="_lgradient_30" x1="0" y1="0.5" x2="1" y2="0.5" gradientTransform="matrix(139.765,0,0,45.577,351.4,504.367)" gradientUnits="userSpaceOnUse"><stop offset="0%" stop-opacity="0.9294117647058824" style="stop-color:rgb(213,213,213)"/><stop offset="11.73913043478261%" stop-opacity="1" style="stop-color:rgb(187,190,191)"/><stop offset="89.56521739130436%" stop-opacity="1" style="stop-color:rgb(172,177,179)"/><stop offset="97.3913043478261%" stop-opacity="1" style="stop-color:rgb(168,168,168)"/></linearGradient><path d=" M 368.439 508.59 L 368.439 508.59 C 372.571 508.59 375.925 512.54 375.925 517.406 L 375.925 542.415 L 360.952 542.415 L 360.952 517.406 C 360.952 512.54 364.307 508.59 368.439 508.59 L 368.439 508.59 L 368.439 508.59 L 368.439 508.59 L 368.439 508.59 Z  M 421.283 508.59 L 421.283 508.59 C 425.415 508.59 428.77 512.54 428.77 517.406 L 428.77 542.415 L 413.796 542.415 L 413.796 517.406 C 413.796 512.54 417.151 508.59 421.283 508.59 L 421.283 508.59 L 421.283 508.59 L 421.283 508.59 Z  M 394.861 508.59 L 394.861 508.59 C 398.993 508.59 402.347 512.54 402.347 517.406 L 402.347 542.415 L 387.374 542.415 L 387.374 517.406 C 387.374 512.54 390.729 508.59 394.861 508.59 L 394.861 508.59 L 394.861 508.59 Z  M 447.705 508.59 L 447.705 508.59 C 451.837 508.59 455.192 512.54 455.192 517.406 L 455.192 542.415 L 440.218 542.415 L 440.218 517.406 C 440.218 512.54 443.573 508.59 447.705 508.59 L 447.705 508.59 Z  M 351.4 504.367 L 491.166 504.367 L 491.166 549.944 L 351.4 549.944 L 351.4 504.367 L 351.4 504.367 L 351.4 504.367 L 351.4 504.367 L 351.4 504.367 Z  M 474.037 508.223 L 474.037 508.223 C 478.169 508.223 481.523 512.173 481.523 517.038 L 481.523 542.047 L 466.55 542.047 L 466.55 517.038 C 466.55 512.173 469.905 508.223 474.037 508.223 Z " fill-rule="evenodd" fill="url(#_lgradient_30)"/><g><linearGradient id="_lgradient_31" x1="-0.09908483865216187" y1="0.21088694518214807" x2="0.8986234882717927" y2="0.9219791101719292" gradientTransform="matrix(187.883,0,0,209.493,327.498,283.592)" gradientUnits="userSpaceOnUse"><stop offset="0%" stop-opacity="1" style="stop-color:rgb(252,215,100)"/><stop offset="100%" stop-opacity="1" style="stop-color:rgb(236,191,42)"/></linearGradient><path d=" M 425.208 331.901 C 440.421 352.392 456.189 366.583 473.684 374.472 C 532.064 400.801 520.512 469.231 491.313 489.064 Q 503.43 495.673 421.465 490.324 L 421.465 490.688 Q 339.444 496.042 351.565 489.431 C 322.366 469.598 310.814 401.168 369.194 374.84 C 386.69 366.949 402.46 352.757 417.674 332.262 Q 417.69 332.262 417.703 332.262 Q 418.089 330.921 418.239 329.054 C 415.708 327.509 412.931 324.783 412.931 320.634 C 412.931 316.647 414.728 314.545 417.494 311.706 C 419.298 309.855 420.134 284.223 421.413 284.234 L 421.413 284.234 Q 421.413 302.243 421.413 332.262 L 421.413 332.262 L 421.413 331.895 L 421.413 331.895 Q 421.413 302.102 421.413 284.234 Q 421.413 283.832 421.413 283.592 C 422.692 283.58 423.528 309.212 425.332 311.063 C 428.098 313.902 429.895 316.005 429.895 319.991 C 429.895 324.141 427.118 326.866 424.587 328.412 Q 424.753 330.479 425.208 331.901 Z " fill-rule="evenodd" fill="url(#_lgradient_31)"/><linearGradient id="_lgradient_32" x1="0" y1="0.5" x2="1" y2="0.5" gradientTransform="matrix(144.748,0,0,7.809,349.116,487.314)" gradientUnits="userSpaceOnUse"><stop offset="0%" stop-opacity="1" style="stop-color:rgb(172,172,172)"/><stop offset="100%" stop-opacity="1" style="stop-color:rgb(146,146,146)"/></linearGradient><rect x="349.116" y="487.314" width="144.748" height="7.809" transform="matrix(1,0,0,1,0,0)" fill="url(#_lgradient_32)"/><linearGradient id="_lgradient_33" x1="0.06088544202868105" y1="0.330545263679837" x2="0.6783320758846642" y2="0.8510905485831319" gradientTransform="matrix(139.465,0,0,135.435,337.146,332.829)" gradientUnits="userSpaceOnUse"><stop offset="0%" stop-opacity="0.7" style="stop-color:rgb(255,255,255)"/><stop offset="100%" stop-opacity="1" style="stop-color:rgb(239,196,55)"/></linearGradient><path d=" M 350.581 467.677 C 331.251 445.135 328.017 395.487 373.316 375.058 C 388.495 368.213 402.176 355.9 415.374 338.12 Q 418.429 333.242 418.618 332.829 L 418.618 332.838 L 418.618 332.829 Q 420.03 335.05 421.906 337.802 C 435.105 355.582 448.785 367.894 463.964 374.739 C 468.709 376.879 472.922 379.34 476.612 382.071 C 454.789 440.176 408.028 473.138 350.581 467.677 Z " fill-rule="evenodd" fill="url(#_lgradient_33)"/></g><linearGradient id="_lgradient_34" x1="0" y1="0.5" x2="1" y2="0.5" gradientTransform="matrix(153.301,0,0,9.817,344.632,494.825)" gradientUnits="userSpaceOnUse"><stop offset="0%" stop-opacity="1" style="stop-color:rgb(174,178,180)"/><stop offset="100%" stop-opacity="1" style="stop-color:rgb(176,176,176)"/></linearGradient><rect x="344.632" y="494.825" width="153.301" height="9.817" transform="matrix(1,0,0,1,0,0)" fill="url(#_lgradient_34)"/><linearGradient id="_lgradient_35" x1="0.0037371476015939653" y1="0.2505562793707413" x2="0.9901617221194101" y2="0.2505562793707413" gradientTransform="matrix(261.505,0,0,123.054,291,547.946)" gradientUnits="userSpaceOnUse"><stop offset="0%" stop-opacity="1" style="stop-color:rgb(232,244,244)"/><stop offset="11.45374449339205%" stop-opacity="1" style="stop-color:rgb(204,211,212)"/><stop offset="88.10572687224666%" stop-opacity="1" style="stop-color:rgb(204,211,212)"/><stop offset="100%" stop-opacity="1" style="stop-color:rgb(173,176,177)"/></linearGradient><rect x="291" y="547.946" width="261.505" height="123.054" transform="matrix(1,0,0,1,0,0)" fill="url(#_lgradient_35)"/><linearGradient id="_lgradient_36" x1="0" y1="0.5" x2="0.8779705859440269" y2="0.8163360823075932" gradientTransform="matrix(57.847,0,0,57.847,392.541,231.683)" gradientUnits="userSpaceOnUse"><stop offset="0%" stop-opacity="1" style="stop-color:rgb(247,255,190)"/><stop offset="98.69565217391305%" stop-opacity="1" style="stop-color:rgb(244,209,97)"/></linearGradient><path d=" M 424.123 231.827 C 423.252 231.724 422.363 231.683 421.465 231.683 C 405.501 231.683 392.541 244.643 392.541 260.606 C 392.541 276.57 405.501 289.53 421.465 289.53 C 437.428 289.53 450.388 276.57 450.388 260.606 C 450.388 259.703 450.347 258.81 450.243 257.934 C 449.042 269.948 438.889 279.331 426.561 279.331 C 413.413 279.331 402.738 268.656 402.738 255.507 C 402.738 243.183 412.115 233.033 424.123 231.827 Z " fill-rule="evenodd" fill="url(#_lgradient_36)"/></g><g><clipPath id="_clipPath_gTbcVoFCpO35A22PH1SV8k0BzRFd1dBg"><path d="M 551.941 678.452 L 552.96 678.452 C 565.116 678.452 574.986 688.321 574.986 700.478 L 574.986 748.607 L 529.916 748.607 L 529.916 700.478 C 529.916 688.321 539.785 678.452 551.941 678.452 Z" style="stroke:none;fill:#FFFFFF;stroke-miterlimit:10;"/></clipPath><g clip-path="url(#_clipPath_gTbcVoFCpO35A22PH1SV8k0BzRFd1dBg)"><rect x="539.216" y="667.543" width="11.878" height="70.032" transform="matrix(0.621,0.784,-0.803,0.597,770.472,-144.038)" fill="rgb(255,255,255)" fill-opacity="0.1"/><rect x="550.205" y="677.281" width="5.345" height="70.032" transform="matrix(0.621,0.784,-0.803,0.597,781.215,-146.165)" fill="rgb(255,255,255)" fill-opacity="0.1"/></g><clipPath id="_clipPath_P6BRKz4Xkb666F3Moo4xJSN2iEERy7Ft"><path d="M 457.766 678.452 L 458.784 678.452 C 470.94 678.452 480.81 688.321 480.81 700.478 L 480.81 748.607 L 435.74 748.607 L 435.74 700.478 C 435.74 688.321 445.609 678.452 457.766 678.452 Z" style="stroke:none;fill:#FFFFFF;stroke-miterlimit:10;"/></clipPath><g clip-path="url(#_clipPath_P6BRKz4Xkb666F3Moo4xJSN2iEERy7Ft)"><rect x="452.763" y="696.092" width="11.878" height="70.032" transform="matrix(0.621,0.784,-0.803,0.597,760.655,-64.792)" fill="rgb(255,255,255)" fill-opacity="0.1"/><rect x="456.029" y="677.281" width="5.345" height="70.032" transform="matrix(0.621,0.784,-0.803,0.597,745.553,-72.373)" fill="rgb(255,255,255)" fill-opacity="0.1"/></g><clipPath id="_clipPath_LmzUtLXMpztZ8ZmOFST9c8rBaQhQghvB"><path d="M 363.59 678.452 L 364.608 678.452 C 376.764 678.452 386.634 688.321 386.634 700.478 L 386.634 748.607 L 341.564 748.607 L 341.564 700.478 C 341.564 688.321 351.433 678.452 363.59 678.452 Z" style="stroke:none;fill:#FFFFFF;stroke-miterlimit:10;"/></clipPath><g clip-path="url(#_clipPath_LmzUtLXMpztZ8ZmOFST9c8rBaQhQghvB)"><rect x="353.863" y="674.425" width="11.878" height="70.032" transform="matrix(0.621,0.784,-0.803,0.597,705.809,3.97)" fill="rgb(255,255,255)" fill-opacity="0.1"/></g><clipPath id="_clipPath_FcFFk1p4eYaoKj5OeBONUJoTP2FXz6TJ"><path d="M 269.414 678.452 L 270.432 678.452 C 282.588 678.452 292.458 688.321 292.458 700.478 L 292.458 748.607 L 247.388 748.607 L 247.388 700.478 C 247.388 688.321 257.257 678.452 269.414 678.452 Z" style="stroke:none;fill:#FFFFFF;stroke-miterlimit:10;"/></clipPath><g clip-path="url(#_clipPath_FcFFk1p4eYaoKj5OeBONUJoTP2FXz6TJ)"><rect x="256.689" y="671.543" width="11.878" height="70.032" transform="matrix(0.621,0.784,-0.803,0.597,666.697,78.949)" fill="rgb(255,255,255)" fill-opacity="0.1"/><rect x="265.306" y="687.794" width="5.345" height="70.032" transform="matrix(0.621,0.784,-0.803,0.597,681.77,81.306)" fill="rgb(255,255,255)" fill-opacity="0.1"/></g><linearGradient id="_lgradient_37" x1="0.02760507836851173" y1="0.44534744807179205" x2="0.9837934179728083" y2="0.44534744807179205" gradientTransform="matrix(493.627,0,0,207.392,164.373,604.608)" gradientUnits="userSpaceOnUse"><stop offset="0%" stop-opacity="1" style="stop-color:rgb(232,244,244)"/><stop offset="10.869565217391305%" stop-opacity="1" style="stop-color:rgb(215,215,215)"/><stop offset="90%" stop-opacity="1" style="stop-color:rgb(200,200,200)"/><stop offset="100%" stop-opacity="1" style="stop-color:rgb(147,147,147)"/></linearGradient><path d=" M 551.941 678.452 L 552.96 678.452 C 565.116 678.452 574.986 688.321 574.986 700.478 L 574.986 748.607 L 529.916 748.607 L 529.916 700.478 C 529.916 688.321 539.785 678.452 551.941 678.452 L 551.941 678.452 L 551.941 678.452 L 551.941 678.452 Z  M 457.766 678.452 L 458.784 678.452 C 470.94 678.452 480.81 688.321 480.81 700.478 L 480.81 748.607 L 435.74 748.607 L 435.74 700.478 C 435.74 688.321 445.609 678.452 457.766 678.452 L 457.766 678.452 L 457.766 678.452 Z  M 363.59 678.452 L 364.608 678.452 C 376.764 678.452 386.634 688.321 386.634 700.478 L 386.634 748.607 L 341.564 748.607 L 341.564 700.478 C 341.564 688.321 351.433 678.452 363.59 678.452 L 363.59 678.452 Z  M 164.373 604.608 L 658 604.608 L 658 812 L 164.373 812 L 164.373 604.608 L 164.373 604.608 L 164.373 604.608 L 164.373 604.608 Z  M 269.414 678.452 L 270.432 678.452 C 282.588 678.452 292.458 688.321 292.458 700.478 L 292.458 748.607 L 247.388 748.607 L 247.388 700.478 C 247.388 688.321 257.257 678.452 269.414 678.452 Z " fill-rule="evenodd" fill="url(#_lgradient_37)"/></g><g><g><linearGradient id="_lgradient_38" x1="-0.09908483865216187" y1="0.21088694518214807" x2="0.8986234882717927" y2="0.9219791101719292" gradientTransform="matrix(132.767,0,0,148.038,611.327,18.5)" gradientUnits="userSpaceOnUse"><stop offset="0%" stop-opacity="1" style="stop-color:rgb(252,215,100)"/><stop offset="100%" stop-opacity="1" style="stop-color:rgb(236,191,42)"/></linearGradient><path d=" M 677.692 18.954 C 676.788 18.946 676.197 37.059 674.923 38.367 C 672.968 40.373 671.698 41.859 671.698 44.676 C 671.698 47.608 673.66 49.534 675.449 50.626 Q 675.343 51.945 675.071 52.893 Q 675.061 52.893 675.05 52.893 C 664.299 67.375 653.155 77.405 640.792 82.98 C 599.537 101.585 607.7 149.941 628.334 163.957 Q 619.769 168.628 677.729 164.845 L 677.729 164.588 Q 735.649 168.367 727.087 163.697 C 747.72 149.682 755.883 101.326 714.629 82.721 C 702.267 77.146 691.124 67.118 680.374 52.638 Q 680.052 51.633 679.935 50.172 C 681.724 49.08 683.686 47.154 683.686 44.222 C 683.686 41.405 682.416 39.919 680.461 37.913 C 679.187 36.605 678.596 18.492 677.692 18.5 Q 677.692 18.67 677.692 18.954 Z " fill-rule="evenodd" fill="url(#_lgradient_38)"/><linearGradient id="_lgradient_39" x1="0" y1="0.5" x2="1" y2="0.5" gradientTransform="matrix(102.286,0,0,5.518,626.603,162.461)" gradientUnits="userSpaceOnUse"><stop offset="0%" stop-opacity="1" style="stop-color:rgb(198,198,198)"/><stop offset="100%" stop-opacity="1" style="stop-color:rgb(145,145,145)"/></linearGradient><rect x="626.603" y="162.461" width="102.286" height="5.518" transform="matrix(1,0,0,1,0,0)" fill="url(#_lgradient_39)"/><linearGradient id="_lgradient_40" x1="0.06088544202868105" y1="0.330545263679837" x2="0.6783320758846642" y2="0.8510905485831319" gradientTransform="matrix(98.553,0,0,95.705,618.145,53.293)" gradientUnits="userSpaceOnUse"><stop offset="0%" stop-opacity="0.7" style="stop-color:rgb(255,255,255)"/><stop offset="100%" stop-opacity="1" style="stop-color:rgb(239,196,55)"/></linearGradient><path d=" M 627.639 148.584 C 613.979 132.655 611.694 97.571 643.704 83.135 C 654.43 78.297 664.098 69.597 673.425 57.033 Q 675.583 53.585 675.717 53.293 L 675.717 53.3 L 675.717 53.293 Q 676.715 54.863 678.04 56.808 C 687.367 69.372 697.035 78.072 707.761 82.909 C 711.114 84.422 714.091 86.16 716.698 88.09 C 701.277 129.15 668.233 152.443 627.639 148.584 Z " fill-rule="evenodd" fill="url(#_lgradient_40)"/></g><linearGradient id="_lgradient_41" x1="0" y1="0.5" x2="1" y2="0.5" gradientTransform="matrix(103.157,0,0,371.342,626.132,440.658)" gradientUnits="userSpaceOnUse"><stop offset="0%" stop-opacity="0.9725490196078431" style="stop-color:rgb(236,236,236)"/><stop offset="16.956521739130434%" stop-opacity="1" style="stop-color:rgb(204,211,212)"/><stop offset="80.8695652173913%" stop-opacity="1" style="stop-color:rgb(204,211,212)"/><stop offset="99.56521739130434%" stop-opacity="1" style="stop-color:rgb(173,176,177)"/></linearGradient><rect x="626.132" y="440.658" width="103.157" height="371.342" transform="matrix(1,0,0,1,0,0)" fill="url(#_lgradient_41)"/><linearGradient id="_lgradient_42" x1="0" y1="0.5" x2="1" y2="0.5" gradientTransform="matrix(79.306,0,0,209.102,638.057,197.713)" gradientUnits="userSpaceOnUse"><stop offset="0%" stop-opacity="0.9215686274509803" style="stop-color:rgb(232,244,244)"/><stop offset="20%" stop-opacity="1" style="stop-color:rgb(204,211,212)"/><stop offset="81.73913043478261%" stop-opacity="1" style="stop-color:rgb(204,211,212)"/><stop offset="98.26086956521739%" stop-opacity="1" style="stop-color:rgb(173,176,177)"/></linearGradient><path d=" M 677.958 315.402 L 677.958 315.402 C 686.014 315.402 692.555 322.256 692.555 330.699 L 692.555 367.638 L 663.36 367.638 L 663.36 330.699 C 663.36 322.256 669.901 315.402 677.958 315.402 L 677.958 315.402 Z  M 638.057 197.713 L 717.363 197.713 L 717.363 406.815 L 638.057 406.815 L 638.057 197.713 L 638.057 197.713 Z  M 677.958 231.634 L 677.958 231.634 C 686.014 231.634 692.555 238.488 692.555 246.931 L 692.555 283.87 L 663.36 283.87 L 663.36 246.931 C 663.36 238.488 669.901 231.634 677.958 231.634 Z " fill-rule="evenodd" fill="url(#_lgradient_42)"/><linearGradient id="_lgradient_43" x1="-2.7755575615628914e-17" y1="0.5" x2="1.0397761337325528" y2="0.5" gradientTransform="matrix(142.579,0,0,38.253,606.421,404.638)" gradientUnits="userSpaceOnUse"><stop offset="0%" stop-opacity="1" style="stop-color:rgb(232,244,244)"/><stop offset="15.217391304347828%" stop-opacity="1" style="stop-color:rgb(197,198,198)"/><stop offset="82.17391304347827%" stop-opacity="1" style="stop-color:rgb(204,211,212)"/><stop offset="100%" stop-opacity="1" style="stop-color:rgb(153,153,153)"/></linearGradient><rect x="606.421" y="404.638" width="142.579" height="38.253" transform="matrix(1,0,0,1,0,0)" fill="url(#_lgradient_43)"/><linearGradient id="_lgradient_44" x1="-0.018982407050947003" y1="0.5365137261403099" x2="1.0185800936185423" y2="0.5365137261403099" gradientTransform="matrix(115.33,0,0,32.472,620.045,167.27)" gradientUnits="userSpaceOnUse"><stop offset="0%" stop-opacity="1" style="stop-color:rgb(231,242,242)"/><stop offset="17.391304347826086%" stop-opacity="1" style="stop-color:rgb(198,199,199)"/><stop offset="84.34782608695653%" stop-opacity="1" style="stop-color:rgb(204,211,212)"/><stop offset="100%" stop-opacity="1" style="stop-color:rgb(164,166,166)"/></linearGradient><rect x="620.045" y="167.27" width="115.33" height="32.472" transform="matrix(1,0,0,1,0,0)" fill="url(#_lgradient_44)"/></g><linearGradient id="_lgradient_45" x1="-0.01067537159699559" y1="0.5543056633048901" x2="0.989784172661873" y2="0.5543056633048898" gradientTransform="matrix(184.919,0,0,191.703,10.814,620.297)" gradientUnits="userSpaceOnUse"><stop offset="0%" stop-opacity="1" style="stop-color:rgb(232,244,244)"/><stop offset="16.08695652173913%" stop-opacity="1" style="stop-color:rgb(204,211,212)"/><stop offset="81.73913043478261%" stop-opacity="1" style="stop-color:rgb(204,211,212)"/><stop offset="100%" stop-opacity="1" style="stop-color:rgb(173,176,177)"/></linearGradient><path d=" M 144.669 812 L 195.733 812 L 195.733 812 L 195.733 620.297 L 195.733 620.297 L 10.814 620.297 L 10.814 620.297 L 10.814 812 L 10.814 812 L 61.879 812 L 61.879 721.126 C 61.879 698.544 80.213 680.211 102.794 680.211 L 103.753 680.211 C 126.335 680.211 144.669 698.544 144.669 721.126 L 144.669 812 Z " fill-rule="evenodd" fill="url(#_lgradient_45)"/></g></svg>